<svg width="40" height="40" viewBox="0 0 30 30" fill="none" xmlns="http://www.w3.org/2000/svg">
<circle cx="15" cy="15" r="15" fill="white"/>
<path d="M13.9089 13.9107C13.9089 12.6146 13.9032 11.3614 13.9108 10.1082C13.9158 9.32127 14.6675 8.80084 15.387 9.07302C15.8199 9.23684 16.0876 9.6363 16.0889 10.1385C16.092 11.2833 16.0901 12.4275 16.0901 13.5723C16.0901 13.6719 16.0901 13.7708 16.0901 13.9113C16.1973 13.9113 16.293 13.9113 16.3882 13.9113C17.5601 13.9113 18.732 13.9075 19.9033 13.9132C20.4596 13.9157 20.9007 14.3013 20.987 14.8381C21.0664 15.3289 20.7753 15.8431 20.2996 16.0119C20.1415 16.068 19.9625 16.0888 19.793 16.0894C18.6665 16.0957 17.5406 16.0926 16.414 16.0926C16.3163 16.0926 16.2181 16.0926 16.0895 16.0926V16.4044C16.0895 17.5398 16.0908 18.6752 16.0895 19.8106C16.0883 20.503 15.6415 20.9919 15.0108 20.9982C14.3676 21.0045 13.9101 20.5118 13.9089 19.8068C13.9076 18.5813 13.9089 17.3558 13.9089 16.0919C13.7992 16.0919 13.7035 16.0919 13.6077 16.0919C12.4358 16.0919 11.2639 16.097 10.0926 16.0888C9.51417 16.0844 9.05801 15.6597 9.00508 15.1059C8.95279 14.5577 9.30877 14.0638 9.85567 13.939C9.96908 13.9132 10.0894 13.9119 10.2072 13.9113C11.3338 13.9094 12.4597 13.91 13.5863 13.91H13.9089V13.9107Z" fill="#1D39DD"/>
</svg>
