<svg width="16" height="16" viewBox="0 0 16 16" fill="none" xmlns="http://www.w3.org/2000/svg">
<path d="M0 8.46922C0 8.15688 0 7.84415 0 7.53181C0.0129205 7.41948 0.0258409 7.30714 0.0383699 7.19442C0.229828 5.47302 0.887597 3.95437 2.04848 2.66664C3.28102 1.29946 4.80759 0.446202 6.62468 0.124467C6.92577 0.0712357 7.23077 0.0410975 7.5342 0C7.84664 0 8.15948 0 8.47192 0C8.73972 0.0336608 9.00909 0.057928 9.27494 0.102157C10.9464 0.381229 12.4033 1.10024 13.6017 2.29755C15.3992 4.09371 16.1913 6.27657 15.9611 8.80466C15.8068 10.5018 15.142 12.0013 14.0074 13.2757C12.5 14.9681 10.603 15.8797 8.33919 15.9901C6.76054 16.0668 5.27625 15.6993 3.92508 14.875C1.84802 13.6084 0.572808 11.7739 0.124506 9.37689C0.0685177 9.07708 0.0407191 8.77178 0 8.46883V8.46922ZM8.00286 1.24271C4.27354 1.24271 1.2482 4.26553 1.24311 7.99641C1.23802 11.7206 4.26102 14.7478 7.99542 14.7579C11.7232 14.7681 14.7681 11.7257 14.763 7.99641C14.7579 4.26514 11.7326 1.24271 8.00325 1.24271H8.00286Z" fill="#1D39DD"/>
<path d="M7.33031 8.66801C6.61683 8.66801 5.92819 8.66801 5.23956 8.66801C5.03781 8.66801 4.83607 8.67349 4.63474 8.66506C4.28516 8.65031 4.01308 8.37049 4.00044 8.0245C3.98823 7.6861 4.23167 7.39659 4.57409 7.34686C4.65117 7.3359 4.73035 7.33211 4.80827 7.33211C5.57566 7.33127 6.34348 7.33127 7.11088 7.33127C7.177 7.33127 7.24313 7.33127 7.32989 7.33127C7.32989 7.25668 7.32989 7.19726 7.32989 7.13742C7.32989 6.33588 7.32863 5.53434 7.33073 4.73238C7.33157 4.37418 7.51563 4.11079 7.81509 4.02693C8.26028 3.90261 8.66462 4.22205 8.66757 4.71089C8.67262 5.50695 8.66883 6.30301 8.66883 7.09907C8.66883 7.17029 8.66883 7.24151 8.66883 7.33127C8.75222 7.33127 8.81793 7.33127 8.88363 7.33127C9.67377 7.33127 10.4635 7.32958 11.2536 7.33211C11.61 7.33338 11.8555 7.49056 11.9578 7.77207C12.1183 8.2133 11.8024 8.66211 11.3185 8.6659C10.5229 8.6718 9.72726 8.66759 8.93165 8.66759C8.85331 8.66759 8.77539 8.66759 8.66841 8.66759C8.66841 8.73206 8.66841 8.79064 8.66841 8.84922C8.66841 9.66213 8.67094 10.475 8.66715 11.2875C8.66546 11.6929 8.40096 11.9846 8.03453 11.9993C7.62472 12.0162 7.33158 11.7191 7.32989 11.2753C7.32694 10.4738 7.32905 9.67225 7.32905 8.87029C7.32905 8.8096 7.32905 8.74892 7.32905 8.66759L7.33031 8.66801Z" fill="#1D39DD"/>
</svg>
