<svg width="25" height="25" viewBox="0 0 25 25" fill="none" xmlns="http://www.w3.org/2000/svg">
<rect y="25" width="25" height="25" rx="12.5" transform="rotate(-90 0 25)" fill="#1D39DD"/>
<path d="M9.34145 13.519C9.39143 13.578 9.41882 13.6119 9.44772 13.6441C10.247 14.5439 11.0457 15.4441 11.8458 16.3426C11.9765 16.4893 12.0469 16.6553 12.012 16.8667C11.947 17.2577 11.5433 17.4383 11.2588 17.2018C11.2197 17.1693 11.185 17.13 11.1507 17.0913C10.064 15.8693 8.9778 14.6472 7.89194 13.4245C7.62551 13.1247 7.62582 12.8343 7.89314 12.5331C8.979 11.3107 10.0658 10.089 11.1507 8.86529C11.2865 8.71215 11.4361 8.62169 11.6336 8.66438C11.9705 8.73722 12.1324 9.17529 11.9382 9.49376C11.9045 9.54898 11.8615 9.59743 11.819 9.6452C11.0282 10.5362 10.2365 11.4266 9.44531 12.3173C9.41672 12.3495 9.38962 12.383 9.34055 12.441L9.49529 12.441C11.9099 12.441 14.3249 12.441 16.7396 12.442C16.8142 12.442 16.8916 12.442 16.9626 12.4637C17.1953 12.5345 17.3326 12.7798 17.304 13.0569C17.2778 13.3086 17.0852 13.5048 16.8507 13.5173C16.8019 13.5201 16.7531 13.519 16.7043 13.519C14.3044 13.519 11.9048 13.519 9.50492 13.519C9.46097 13.519 9.41672 13.519 9.34145 13.519Z" fill="white"/>
</svg>
