<svg width="18" height="24" viewBox="0 0 18 24" fill="none" xmlns="http://www.w3.org/2000/svg">
<path d="M13.2196 0.000586906C13.5135 0.14499 13.5397 0.438492 13.6001 0.709101C13.8603 1.8743 13.7755 2.999 13.122 4.02098C12.4459 5.07817 11.4618 5.72564 10.2658 6.03616C10.0038 6.10426 9.86559 6.18702 9.87082 6.48405C9.8772 6.85738 9.82493 7.23189 9.82318 7.60581C9.81679 8.98058 9.82086 10.3553 9.82086 11.7301V12.0453C10.1107 11.6802 10.3628 11.3709 10.6021 11.0521C10.6422 10.9981 10.6358 10.903 10.6382 10.8267C10.6678 9.94385 10.7195 9.06452 10.9524 8.20691C11.1906 7.33051 11.5989 6.56975 12.3942 6.08019C12.9733 5.72388 13.6175 5.55541 14.282 5.49436C14.9582 5.43214 15.639 5.41511 16.3186 5.39163C16.6189 5.38107 16.7752 5.52723 16.7711 5.82954C16.7543 6.98594 16.7089 8.13999 16.3058 9.24414C15.9126 10.3201 15.1667 10.9999 14.0735 11.2981C13.2149 11.5323 12.3367 11.5781 11.4543 11.5787C11.2928 11.5787 11.1859 11.6268 11.0831 11.7559C10.6475 12.3054 10.2188 12.8595 9.95911 13.5205C9.88359 13.7124 9.82841 13.9267 9.82725 14.131C9.81737 15.8961 9.82144 17.6612 9.82202 19.4269C9.82202 19.4574 9.82783 19.488 9.83422 19.5496C9.88418 19.502 9.92193 19.4727 9.95214 19.4363C10.4087 18.8863 10.8682 18.3386 11.316 17.7815C11.391 17.6882 11.4496 17.5538 11.4555 17.4352C11.4967 16.6146 11.578 15.8027 11.829 15.0144C12.2745 13.6144 13.2126 12.7386 14.5986 12.3406C15.5582 12.0647 16.5457 12.0089 17.5367 12.0054C17.8202 12.0042 17.9915 12.1569 17.9968 12.4239C18.0159 13.3878 17.9567 14.3429 17.6442 15.2656C17.1632 16.6862 16.1687 17.5303 14.7531 17.903C13.9405 18.1173 13.111 18.1913 12.2739 18.193C12.1043 18.193 11.9904 18.2523 11.876 18.3779C11.1151 19.2144 10.4168 20.0955 9.8987 21.1104C9.86443 21.1779 9.82551 21.2537 9.82434 21.3265C9.81853 21.927 9.82086 22.528 9.82086 23.1679H10.1008C12.1182 23.1679 14.1356 23.1679 16.153 23.1691C16.253 23.1691 16.3534 23.1773 16.4522 23.1925C16.6747 23.2272 16.7659 23.3833 16.7659 23.5905C16.7659 23.8013 16.6596 23.9474 16.4446 23.9868C16.3622 24.002 16.2756 23.9997 16.1908 23.9997C11.6692 23.9997 7.14707 23.9997 2.62549 23.9997C2.54068 23.9997 2.45413 24.0032 2.37165 23.9873C2.16021 23.9468 2.04752 23.806 2.04635 23.5929C2.04519 23.3839 2.14046 23.2301 2.36003 23.1937C2.46575 23.1761 2.57495 23.1696 2.68242 23.1696C4.68413 23.1685 6.68643 23.1685 8.68814 23.1685C8.7805 23.1685 8.87286 23.1685 8.99833 23.1685C8.99833 23.0804 8.99833 23.0059 8.99833 22.9307C8.99833 21.7432 9.00124 20.5563 8.99368 19.3688C8.9931 19.2455 8.94721 19.1105 8.88564 19.0019C8.45928 18.2464 7.86155 17.6354 7.23362 17.0536C7.16972 16.9944 7.05587 16.9697 6.96409 16.965C6.05908 16.921 5.16452 16.823 4.29088 16.5606C2.01441 15.8779 0.656306 14.3446 0.200896 12.0072C0.0748447 11.3603 0.0516093 10.6917 0.00281534 10.0313C-0.0233243 9.67442 0.132352 9.51945 0.478557 9.52297C1.67808 9.5353 2.87178 9.59811 4.03529 9.9327C5.68325 10.407 6.78285 11.4548 7.30971 13.1078C7.62513 14.0975 7.74537 15.1177 7.75118 16.1526C7.75234 16.3475 7.80462 16.4954 7.95623 16.6199C8.33264 16.9292 8.7015 17.2479 9.07327 17.5626L8.99833 17.6653V17.4193C8.99833 15.8961 8.97916 14.3728 9.00704 12.8501C9.01924 12.1751 8.82755 11.5904 8.45811 11.0521C8.23389 10.7257 7.98063 10.4193 7.74479 10.1006C7.65476 9.97907 7.54845 9.92918 7.39452 9.92331C6.71257 9.89689 6.03991 9.80532 5.40326 9.53823C4.41054 9.12204 3.82094 8.35483 3.52934 7.32816C3.31384 6.56916 3.28944 5.78903 3.27317 5.00832C3.26795 4.75121 3.41142 4.56983 3.65772 4.56748C4.66148 4.55985 5.65362 4.63792 6.54295 5.17855C7.28648 5.63054 7.72969 6.32027 7.91789 7.15441C8.05092 7.74376 8.10494 8.35424 8.15606 8.95827C8.17697 9.2054 8.23041 9.39852 8.40467 9.57815C8.60566 9.78595 8.77586 10.0249 8.99949 10.2996V10.0125C8.99949 9.20012 8.98962 8.3877 9.00356 7.57588C9.01111 7.12388 9.0448 6.6713 9.09185 6.22166C9.11741 5.9804 9.08721 5.77788 8.96755 5.55952C8.09448 3.96639 8.53711 2.15548 10.0236 1.12587C10.8705 0.539457 11.8191 0.238324 12.8136 0.0504822C12.8728 0.0393291 12.9303 0.0170231 12.989 0C13.0662 0 13.1435 0 13.2208 0L13.2196 0.000586906ZM6.57897 16.1197C6.56735 16.0757 6.56735 16.0587 6.55921 16.0475C5.86158 15.0596 5.0832 14.1615 3.96558 13.6302C3.86044 13.5803 3.74078 13.4553 3.72278 13.3491C3.70128 13.2234 3.74775 13.0497 3.82908 12.9505C3.95629 12.7955 4.14624 12.8231 4.3205 12.9065C4.96354 13.2152 5.5177 13.649 6.01086 14.1621C6.29898 14.462 6.56735 14.7808 6.86941 15.1183C6.86418 15.0115 6.87057 14.9351 6.85546 14.8629C6.75207 14.3675 6.68004 13.8621 6.53075 13.3813C6.19094 12.2883 5.52525 11.4618 4.47269 10.9817C3.67224 10.6166 2.82125 10.4792 1.95574 10.4076C1.58223 10.3771 1.20698 10.3665 0.773063 10.3436C0.8631 10.9576 0.912475 11.527 1.03446 12.0794C1.32838 13.4054 1.99524 14.489 3.17558 15.1987C4.21768 15.8256 5.37306 16.0381 6.57838 16.1185L6.57897 16.1197ZM17.18 12.8384C16.3563 12.8495 15.5797 12.8924 14.8217 13.106C14.0009 13.3379 13.3288 13.7735 12.903 14.543C12.6033 15.0848 12.4435 15.6701 12.411 16.3093C12.4784 16.2753 12.508 16.2107 12.5527 16.1602C12.9849 15.6713 13.4914 15.2797 14.0805 15.0027C14.1757 14.9575 14.2855 14.9146 14.3872 14.9175C14.5754 14.9234 14.7061 15.0349 14.7432 15.2269C14.7862 15.4494 14.6886 15.6096 14.4894 15.6988C13.9323 15.9471 13.4851 16.3375 13.0953 16.7989C12.9547 16.965 12.8316 17.1452 12.6724 17.356C13.4647 17.3313 14.1833 17.245 14.8774 17.0114C15.4142 16.8306 15.8934 16.5529 16.2564 16.1033C17.0209 15.157 17.1272 14.0212 17.1806 12.8384H17.18ZM11.495 9.95324L11.5519 9.98024C11.7018 9.8241 11.8452 9.66092 12.0026 9.51299C12.3982 9.14142 12.795 8.76984 13.2027 8.41177C13.4124 8.22745 13.6523 8.24565 13.8005 8.42234C13.9672 8.62133 13.9439 8.84028 13.7284 9.0381C13.4485 9.29521 13.158 9.54117 12.8862 9.80708C12.5911 10.0959 12.3123 10.4017 11.9852 10.7428C12.7026 10.707 13.3462 10.6711 13.9724 10.471C14.7949 10.2074 15.3497 9.66092 15.5815 8.83441C15.7424 8.26091 15.815 7.66099 15.9062 7.06988C15.948 6.79692 15.9404 6.51633 15.9555 6.2287C15.1464 6.22753 14.3761 6.24866 13.6227 6.44824C13.0302 6.60497 12.5156 6.89319 12.1688 7.41973C11.6634 8.18812 11.5652 9.06863 11.495 9.95383V9.95324ZM10.1473 5.18912C12.3593 4.57041 13.3224 2.67263 12.7613 0.841177C12.2292 1.0161 11.6803 1.15112 11.1702 1.37535C10.3437 1.73871 9.68668 2.30223 9.42586 3.22324C9.29284 3.69284 9.31143 4.16186 9.47581 4.6432C9.68261 4.2728 9.87198 3.92588 10.0695 3.58366C10.1804 3.39171 10.3367 3.28253 10.5702 3.36177C10.8612 3.46098 10.9379 3.7128 10.7706 4.02567C10.5632 4.41368 10.3553 4.80169 10.1473 5.1897V5.18912ZM6.78285 9.03986C6.71954 8.96649 6.68585 8.9254 6.65041 8.88607C6.38611 8.59139 6.11717 8.30083 5.85925 8.00028C5.70184 7.81655 5.71636 7.60053 5.87668 7.43265C6.02655 7.27592 6.22463 7.26829 6.4169 7.42384C6.50055 7.49135 6.57141 7.57588 6.64519 7.65512C6.84907 7.87349 7.05122 8.09361 7.27951 8.34074C7.12209 6.29269 6.195 5.43272 4.07421 5.41218C4.10964 5.79256 4.13346 6.17176 4.18225 6.54744C4.36174 7.94628 5.06693 8.86318 6.78285 9.04045V9.03986Z" fill="#1D98DD"/>
</svg>
