<svg width="20" height="18" viewBox="0 0 20 18" fill="none" xmlns="http://www.w3.org/2000/svg">
<path d="M0 0.366108C0.0852354 0.127328 0.248248 -0.00157038 0.510347 1.44412e-05C1.86559 0.00952336 3.2171 0.0639355 4.55104 0.327544C5.40286 0.495535 6.22325 0.751747 6.99356 1.16116C8.33975 1.87697 8.99926 3.01487 9.06958 4.49879C9.09195 4.97159 9.03389 5.45021 8.99127 5.92407C8.96996 6.16074 8.82772 6.29756 8.63594 6.33084C8.41806 6.36888 8.25345 6.28382 8.13945 6.1021C7.69676 5.39844 7.21198 4.72066 6.57964 4.17654C6.00164 3.67838 5.37676 3.23357 4.76413 2.77556C4.59738 2.65089 4.35127 2.70002 4.21329 2.84794C4.06679 3.00483 4.04815 3.24625 4.18825 3.41424C4.26976 3.51197 4.37151 3.59914 4.47859 3.6694C6.77675 5.18819 8.17887 7.34671 8.96943 9.92151C9.23739 10.7942 9.40093 11.6986 9.61242 12.5888C9.62574 12.6448 9.63746 12.7013 9.6609 12.808C9.7456 12.5359 9.81273 12.3083 9.88624 12.0832C10.4738 10.2924 11.3965 8.70437 12.7789 7.39637C13.6196 6.60079 14.5806 5.9806 15.6221 5.47504C15.7616 5.40742 15.8996 5.27799 15.9705 5.14223C16.0525 4.98586 15.9848 4.8073 15.8373 4.69372C15.6695 4.56429 15.4745 4.54052 15.287 4.64565C14.7606 4.9399 14.2253 5.22147 13.7202 5.54847C12.9861 6.02339 12.3495 6.61558 11.7742 7.2717C11.633 7.43282 11.469 7.53636 11.2431 7.46187C11.0668 7.40429 10.9474 7.28543 10.9352 7.10053C10.8515 5.88498 11.0406 4.73968 11.8919 3.79407C12.3682 3.26474 12.9782 2.91714 13.6329 2.64561C14.7495 2.18231 15.9241 1.97047 17.1227 1.88331C17.8819 1.82784 18.6436 1.81041 19.4044 1.78452C19.8423 1.76973 20.0031 1.93719 20 2.37672C19.9882 3.83739 19.9147 5.29226 19.5738 6.72071C19.3655 7.59183 19.0538 8.41963 18.5403 9.16767C17.9101 10.0858 17.0178 10.5745 15.9353 10.7361C14.9199 10.8877 13.9195 10.8074 12.9712 10.3911C12.625 10.239 12.3085 10.0187 11.9489 9.81269C11.7886 10.0974 11.5979 10.4091 11.4333 10.734C10.7354 12.108 10.33 13.5708 10.1611 15.0944C10.0738 15.882 10.0466 16.676 9.99811 17.4679C9.97574 17.8324 9.78609 18.0326 9.47711 17.9956C9.28746 17.9729 9.13723 17.8419 9.10527 17.6533C9.08503 17.5329 9.08077 17.4098 9.07544 17.2872C9.03335 16.3786 9.0243 15.4668 8.94492 14.5613C8.76433 12.509 8.36958 10.5021 7.50072 8.6114C7.47621 8.55857 7.45224 8.50574 7.42667 8.45397C7.42134 8.44288 7.41015 8.43443 7.42933 8.45608C6.94562 8.61034 6.48641 8.80316 6.00803 8.90036C4.86321 9.1328 3.7413 9.04775 2.68651 8.50099C1.93964 8.11376 1.45966 7.47825 1.08409 6.75504C0.587059 5.80204 0.33668 4.7756 0.201901 3.72223C0.118264 3.07034 0.0873663 2.41158 0.0314306 1.75599C0.0261033 1.6926 0.0106544 1.62974 0 1.56687L0 0.366108Z" fill="#1D39DD"/>
</svg>
