<svg width="40" height="40" viewBox="0 0 30 30" fill="none" xmlns="http://www.w3.org/2000/svg">
<circle cx="15" cy="15" r="15" fill="white"/>
<path d="M6 16.895C6.11082 16.7747 6.2038 16.6405 6.33575 16.5366C7.75623 15.4234 9.18282 14.3153 10.6071 13.2051C10.7381 13.103 10.8757 13.0167 11.0705 13.0032C11.434 12.9783 11.7434 13.1561 11.7688 13.4387C11.7951 13.7339 11.7829 14.0312 11.7857 14.3274C11.7876 14.5457 11.7857 14.7641 11.7857 15.0007C11.8773 15.0007 11.9515 15.0007 12.0257 15.0007C14.2515 15.0007 16.4778 15.0076 18.7036 14.9959C19.2581 14.993 19.5347 15.2497 19.5004 15.6242C19.4817 15.8319 19.4972 16.0418 19.4972 16.2258C20.4518 15.4823 21.4168 14.7308 22.3625 13.9943C21.4314 13.2683 20.4622 12.5128 19.4972 11.7605C19.4972 11.962 19.4972 12.1877 19.4972 12.4133C19.4962 12.7999 19.2497 12.9966 18.7543 12.997C17.1023 12.9984 15.4503 12.9988 13.7983 12.997C13.2832 12.9962 12.9653 12.6964 13.1005 12.3504C13.186 12.131 13.4292 11.9971 13.757 11.9964C14.4891 11.9946 15.2216 11.9957 15.9537 11.9957C16.6332 11.9957 17.3127 11.9957 17.9922 11.9957H18.2002C18.2039 11.939 18.2096 11.8911 18.2096 11.8428C18.2105 11.4094 18.2058 10.9761 18.2114 10.5427C18.2161 10.2022 18.4988 9.96928 18.8914 10.0033C19.0421 10.0161 19.2154 10.0761 19.3225 10.1584C20.8167 11.3107 22.3029 12.4696 23.7873 13.6296C24.0793 13.8582 24.0685 14.1468 23.768 14.3812C22.2992 15.5273 20.827 16.6716 19.3582 17.8177C19.1422 17.9863 18.8942 18.0499 18.6078 17.9596C18.3251 17.8707 18.2114 17.6872 18.2105 17.4579C18.2086 17.0245 18.2105 16.5911 18.2096 16.1578C18.2096 16.1091 18.2044 16.0605 18.2007 15.9976H17.979C15.7354 15.9976 13.4917 15.9976 11.248 15.9976C10.7376 15.9976 10.4991 15.8089 10.4986 15.4092C10.4986 15.2267 10.4986 15.0442 10.4986 14.8617V14.7527C9.5289 15.509 8.56344 16.2624 7.6116 17.0048C8.55405 17.7387 9.52186 18.4924 10.4883 19.2451C10.4897 19.2337 10.4981 19.2016 10.4986 19.1694C10.5 18.9503 10.4953 18.7313 10.5005 18.5126C10.5075 18.2343 10.7371 18.0408 11.0907 18.009C11.1485 18.0039 11.2077 18.002 11.2659 18.002C12.9 18.002 14.5346 18.0009 16.1688 18.0031C16.2787 18.0031 16.3932 18.0112 16.497 18.0371C16.7806 18.1077 16.9595 18.337 16.921 18.5608C16.8802 18.7985 16.6435 18.9781 16.3378 19.0008C16.274 19.0055 16.2092 19.0041 16.1448 19.0041C14.7624 19.0041 13.3799 19.0041 11.9975 19.0041H11.7862C11.7862 19.0648 11.7862 19.1134 11.7862 19.1617C11.7862 19.5859 11.7895 20.0101 11.7852 20.4344C11.7815 20.7916 11.4964 21.0341 11.0973 20.9961C10.9466 20.9815 10.7756 20.92 10.6681 20.837C9.17812 19.6876 7.6966 18.5319 6.21695 17.3741C6.12538 17.3017 6.07138 17.2011 6 17.1141C6 17.041 6 16.9682 6 16.895Z" fill="#1D39DD"/>
</svg>
