<svg width="43" height="43" viewBox="0 0 43 43" fill="none" xmlns="http://www.w3.org/2000/svg">
<g filter="url(#filter0_d_324_667)">
<circle cx="21.5" cy="21.5" r="17.5" fill="white"/>
</g>
<path d="M25.3286 9.83387C25.5953 9.96724 25.619 10.2383 25.6738 10.4883C25.9099 11.5645 25.833 12.6032 25.24 13.5471C24.6265 14.5236 23.7336 15.1216 22.6483 15.4084C22.4106 15.4713 22.2851 15.5477 22.2899 15.8221C22.2957 16.1669 22.2482 16.5128 22.2466 16.8581C22.2408 18.1279 22.2445 19.3976 22.2445 20.6674V20.9585C22.5075 20.6213 22.7363 20.3356 22.9535 20.0412C22.9898 19.9913 22.984 19.9035 22.9862 19.833C23.013 19.0176 23.0599 18.2054 23.2713 17.4133C23.4874 16.6039 23.858 15.9012 24.5796 15.4491C25.1051 15.12 25.6896 14.9644 26.2926 14.908C26.9062 14.8505 27.5239 14.8348 28.1406 14.8131C28.4131 14.8033 28.5549 14.9383 28.5512 15.2176C28.5359 16.2856 28.4948 17.3515 28.129 18.3713C27.7722 19.3651 27.0954 19.9929 26.1034 20.2684C25.3243 20.4847 24.5274 20.527 23.7267 20.5275C23.5802 20.5275 23.4832 20.572 23.3899 20.6912C22.9946 21.1987 22.6056 21.7105 22.37 22.321C22.3015 22.4983 22.2514 22.6962 22.2503 22.8848C22.2414 24.5151 22.2451 26.1454 22.2456 27.7762C22.2456 27.8044 22.2509 27.8326 22.2567 27.8895C22.302 27.8456 22.3362 27.8185 22.3637 27.7849C22.7779 27.2769 23.1949 26.7711 23.6013 26.2565C23.6693 26.1703 23.7225 26.0462 23.7278 25.9367C23.7652 25.1787 23.839 24.4289 24.0667 23.7008C24.471 22.4077 25.3222 21.5988 26.5799 21.2312C27.4506 20.9764 28.3467 20.9249 29.2459 20.9217C29.5032 20.9206 29.6587 21.0615 29.6634 21.3082C29.6808 22.1985 29.627 23.0806 29.3435 23.9328C28.907 25.2449 28.0046 26.0245 26.7201 26.3688C25.9827 26.5667 25.23 26.635 24.4705 26.6366C24.3165 26.6366 24.2132 26.6914 24.1094 26.8074C23.4189 27.58 22.7853 28.3938 22.3152 29.3312C22.2841 29.3935 22.2487 29.4634 22.2477 29.5307C22.2424 30.0853 22.2445 30.6405 22.2445 31.2314H22.4986C24.3292 31.2314 26.1598 31.2314 27.9904 31.2325C28.0811 31.2325 28.1722 31.2401 28.2618 31.2542C28.4637 31.2862 28.5465 31.4304 28.5465 31.6218C28.5465 31.8164 28.45 31.9514 28.255 31.9878C28.1801 32.0019 28.1016 31.9997 28.0247 31.9997C23.9217 31.9997 19.8183 31.9997 15.7154 31.9997C15.6384 31.9997 15.5599 32.0029 15.4851 31.9883C15.2932 31.9509 15.1909 31.8208 15.1899 31.624C15.1888 31.431 15.2753 31.2889 15.4745 31.2553C15.5704 31.239 15.6695 31.2331 15.7671 31.2331C17.5834 31.232 19.4003 31.232 21.2167 31.232C21.3005 31.232 21.3843 31.232 21.4982 31.232C21.4982 31.1507 21.4982 31.0818 21.4982 31.0124C21.4982 29.9156 21.5008 28.8194 21.4939 27.7226C21.4934 27.6087 21.4518 27.484 21.3959 27.3837C21.009 26.6859 20.4666 26.1215 19.8968 25.5843C19.8389 25.5295 19.7356 25.5067 19.6523 25.5024C18.8311 25.4617 18.0193 25.3712 17.2266 25.1288C15.1609 24.4983 13.9285 23.0822 13.5153 20.9233C13.4009 20.3258 13.3798 19.7083 13.3356 19.0984C13.3118 18.7687 13.4531 18.6256 13.7673 18.6288C14.8557 18.6402 15.9389 18.6982 16.9947 19.0073C18.49 19.4453 19.4878 20.4131 19.9659 21.9398C20.2521 22.8539 20.3612 23.7962 20.3665 24.752C20.3675 24.932 20.415 25.0687 20.5526 25.1836C20.8941 25.4693 21.2288 25.7637 21.5662 26.0543L21.4982 26.1492V25.922C21.4982 24.5151 21.4808 23.1082 21.5061 21.7018C21.5171 21.0783 21.3432 20.5383 21.008 20.0412C20.8045 19.7397 20.5747 19.4567 20.3607 19.1623C20.279 19.0501 20.1825 19.004 20.0429 18.9986C19.424 18.9742 18.8137 18.8896 18.236 18.6429C17.3352 18.2585 16.8002 17.5499 16.5356 16.6017C16.34 15.9007 16.3179 15.1801 16.3031 14.4591C16.2984 14.2216 16.4286 14.0541 16.652 14.0519C17.5629 14.0449 18.4631 14.117 19.2701 14.6163C19.9448 15.0338 20.347 15.6708 20.5178 16.4412C20.6385 16.9855 20.6875 17.5494 20.7339 18.1073C20.7528 18.3355 20.8013 18.5139 20.9595 18.6798C21.1418 18.8717 21.2963 19.0924 21.4992 19.3461V19.081C21.4992 18.3307 21.4903 17.5803 21.5029 16.8305C21.5098 16.413 21.5403 15.995 21.583 15.5797C21.6062 15.3569 21.5788 15.1698 21.4702 14.9682C20.678 13.4967 21.0796 11.8242 22.4285 10.8732C23.197 10.3316 24.0577 10.0534 24.9601 9.87995C25.0139 9.86965 25.0661 9.84905 25.1193 9.83333C25.1894 9.83333 25.2595 9.83333 25.3296 9.83333L25.3286 9.83387ZM19.3028 24.7217C19.2923 24.681 19.2923 24.6653 19.2849 24.655C18.6518 23.7425 17.9455 22.913 16.9314 22.4224C16.836 22.3763 16.7274 22.2608 16.7111 22.1627C16.6916 22.0466 16.7337 21.8862 16.8075 21.7945C16.923 21.6514 17.0953 21.6769 17.2535 21.7539C17.837 22.0391 18.3398 22.4397 18.7873 22.9136C19.0487 23.1906 19.2923 23.485 19.5664 23.7968C19.5616 23.6981 19.5674 23.6276 19.5537 23.5609C19.4599 23.1033 19.3945 22.6365 19.2591 22.1925C18.9507 21.183 18.3467 20.4196 17.3916 19.9761C16.6652 19.6389 15.893 19.512 15.1077 19.4459C14.7687 19.4177 14.4282 19.4079 14.0345 19.3868C14.1162 19.9539 14.161 20.4798 14.2717 20.99C14.5384 22.2147 15.1435 23.2156 16.2146 23.871C17.1602 24.4501 18.2086 24.6463 19.3023 24.7206L19.3028 24.7217ZM28.9223 21.691C28.1749 21.7013 27.4702 21.7409 26.7823 21.9382C26.0375 22.1524 25.4277 22.5547 25.0413 23.2654C24.7693 23.7658 24.6244 24.3064 24.5948 24.8968C24.656 24.8654 24.6829 24.8057 24.7235 24.7591C25.1156 24.3075 25.5752 23.9458 26.1097 23.6899C26.1962 23.6482 26.2958 23.6086 26.388 23.6113C26.5588 23.6168 26.6774 23.7198 26.7111 23.8971C26.7501 24.1025 26.6616 24.2505 26.4808 24.333C25.9753 24.5623 25.5694 24.9228 25.2158 25.349C25.0882 25.5024 24.9765 25.6688 24.832 25.8635C25.551 25.8407 26.203 25.761 26.8329 25.5452C27.3199 25.3782 27.7548 25.1218 28.0842 24.7065C28.7779 23.8325 28.8743 22.7834 28.9228 21.691H28.9223ZM23.7636 19.0263L23.8153 19.0512C23.9513 18.907 24.0815 18.7563 24.2243 18.6196C24.5833 18.2764 24.9433 17.9333 25.3133 17.6025C25.5036 17.4323 25.7212 17.4491 25.8557 17.6123C26.0069 17.7961 25.9859 17.9983 25.7903 18.181C25.5362 18.4185 25.2727 18.6457 25.026 18.8913C24.7582 19.158 24.5052 19.4405 24.2085 19.7555C24.8594 19.7224 25.4435 19.6893 26.0117 19.5044C26.758 19.261 27.2614 18.7563 27.4717 17.9929C27.6177 17.4632 27.6836 16.9091 27.7664 16.3631C27.8043 16.111 27.7975 15.8519 27.8112 15.5862C27.0769 15.5851 26.378 15.6047 25.6944 15.789C25.1567 15.9338 24.6897 16.2 24.375 16.6863C23.9165 17.396 23.8274 18.2092 23.7636 19.0268V19.0263ZM22.5408 14.6261C24.5479 14.0546 25.4219 12.3018 24.9127 10.6102C24.4299 10.7718 23.9318 10.8965 23.469 11.1036C22.7189 11.4392 22.1228 11.9597 21.8861 12.8103C21.7654 13.2441 21.7823 13.6773 21.9314 14.1218C22.1191 13.7797 22.2909 13.4593 22.4701 13.1432C22.5708 12.9659 22.7126 12.8651 22.9245 12.9383C23.1886 13.0299 23.2581 13.2625 23.1063 13.5515C22.9182 13.9099 22.7295 14.2682 22.5408 14.6266V14.6261ZM19.4878 18.1826C19.4304 18.1149 19.3998 18.0769 19.3676 18.0406C19.1278 17.7684 18.8838 17.5001 18.6497 17.2225C18.5069 17.0528 18.5201 16.8533 18.6656 16.6982C18.8015 16.5534 18.9813 16.5464 19.1557 16.6901C19.2317 16.7524 19.296 16.8305 19.3629 16.9037C19.5479 17.1054 19.7313 17.3087 19.9385 17.5369C19.7956 15.6453 18.9544 14.8511 17.03 14.8321C17.0621 15.1834 17.0837 15.5336 17.128 15.8806C17.2909 17.1726 17.9308 18.0195 19.4878 18.1832V18.1826Z" fill="#12C802"/>
<defs>
<filter id="filter0_d_324_667" x="0" y="0" width="43" height="43" filterUnits="userSpaceOnUse" color-interpolation-filters="sRGB">
<feFlood flood-opacity="0" result="BackgroundImageFix"/>
<feColorMatrix in="SourceAlpha" type="matrix" values="0 0 0 0 0 0 0 0 0 0 0 0 0 0 0 0 0 0 127 0" result="hardAlpha"/>
<feOffset/>
<feGaussianBlur stdDeviation="2"/>
<feComposite in2="hardAlpha" operator="out"/>
<feColorMatrix type="matrix" values="0 0 0 0 0.625 0 0 0 0 0.625 0 0 0 0 0.625 0 0 0 0.25 0"/>
<feBlend mode="normal" in2="BackgroundImageFix" result="effect1_dropShadow_324_667"/>
<feBlend mode="normal" in="SourceGraphic" in2="effect1_dropShadow_324_667" result="shape"/>
</filter>
</defs>
</svg>
